<svg width="25" height="26" viewBox="0 0 25 26" fill="none" xmlns="http://www.w3.org/2000/svg">
<path d="M11.0731 24.0254C11.6791 24.5254 12.3111 24.9824 12.9581 25.4284C13.6065 24.9883 14.2354 24.5202 14.8431 24.0254C15.8561 23.1936 16.8094 22.2917 17.6961 21.3264C19.7401 19.0914 21.9581 15.8514 21.9581 12.2144C21.9581 11.0325 21.7253 9.86213 21.273 8.7702C20.8207 7.67827 20.1578 6.68612 19.322 5.85039C18.4863 5.01467 17.4942 4.35173 16.4022 3.89944C15.3103 3.44715 14.14 3.21436 12.9581 3.21436C11.7762 3.21436 10.6058 3.44715 9.51392 3.89944C8.42199 4.35173 7.42983 5.01467 6.59411 5.85039C5.75838 6.68612 5.09545 7.67827 4.64315 8.7702C4.19086 9.86213 3.95807 11.0325 3.95807 12.2144C3.95807 15.8514 6.17607 19.0904 8.22007 21.3264C9.10669 22.292 10.06 23.1933 11.0731 24.0254ZM12.9581 15.4644C12.0961 15.4644 11.2695 15.1219 10.66 14.5125C10.0505 13.903 9.70807 13.0763 9.70807 12.2144C9.70807 11.3524 10.0505 10.5258 10.66 9.91626C11.2695 9.30677 12.0961 8.96436 12.9581 8.96436C13.82 8.96436 14.6467 9.30677 15.2562 9.91626C15.8657 10.5258 16.2081 11.3524 16.2081 12.2144C16.2081 13.0763 15.8657 13.903 15.2562 14.5125C14.6467 15.1219 13.82 15.4644 12.9581 15.4644Z" fill="#9ED1BA"/>
</svg>
