<svg width="24" height="25" viewBox="0 0 24 25" fill="none" xmlns="http://www.w3.org/2000/svg">
<g clip-path="url(#clip0_64_14988)">
<path d="M12 24.3535C18.6274 24.3535 24 18.9809 24 12.3535C24 5.7261 18.6274 0.353516 12 0.353516C5.37258 0.353516 0 5.7261 0 12.3535C0 18.9809 5.37258 24.3535 12 24.3535Z" fill="#090909"/>
<path d="M8.74021 6.42602H6.9335L15.2498 18.3216H17.0565L8.74021 6.42602ZM5.33337 5.54053H9.30369L12.7461 10.5503L17.0559 5.54053H18.2322L13.2684 11.3105L18.6667 19.1669H14.6964L11.0611 13.8763L6.50966 19.1669H5.33337L10.5388 13.1161L5.33337 5.54053Z" fill="white"/>
</g>
<defs>
<clipPath id="clip0_64_14988">
<rect width="24" height="24" fill="white" transform="translate(0 0.353516)"/>
</clipPath>
</defs>
</svg>
